<svg width="37" height="40" viewBox="0 0 37 40" fill="none" xmlns="http://www.w3.org/2000/svg">
<path d="M18.5 8C17.3425 8 16.3516 7.60833 15.5273 6.825C14.703 6.04167 14.2908 5.1 14.2908 4C14.2908 2.9 14.703 1.95833 15.5273 1.175C16.3516 0.391667 17.3425 0 18.5 0C19.6575 0 20.6484 0.391667 21.4727 1.175C22.297 1.95833 22.7092 2.9 22.7092 4C22.7092 5.1 22.297 6.04167 21.4727 6.825C20.6484 7.60833 19.6575 8 18.5 8ZM12.1862 38V14C10.4675 13.8667 8.73121 13.6833 6.97738 13.45C5.22356 13.2167 3.50482 12.9167 1.82115 12.55C1.22485 12.4167 0.742546 12.1 0.374243 11.6C0.00594036 11.1 -0.0905199 10.5667 0.0848624 10C0.260245 9.43333 0.628547 9.01667 1.18977 8.75C1.75099 8.48333 2.34729 8.41667 2.97867 8.55C5.43402 9.05 7.98583 9.41667 10.6341 9.65C13.2824 9.88333 15.9043 10 18.5 10C21.0957 10 23.7176 9.88333 26.3659 9.65C29.0142 9.41667 31.566 9.05 34.0213 8.55C34.6527 8.41667 35.249 8.48333 35.8102 8.75C36.3715 9.01667 36.7398 9.43333 36.9151 10C37.0905 10.5667 36.9941 11.1 36.6258 11.6C36.2575 12.1 35.7752 12.4167 35.1789 12.55C33.4952 12.9167 31.7764 13.2167 30.0226 13.45C28.2688 13.6833 26.5325 13.8667 24.8138 14V38C24.8138 38.5667 24.6121 39.0417 24.2087 39.425C23.8053 39.8083 23.3055 40 22.7092 40C22.1129 40 21.613 39.8083 21.2097 39.425C20.8063 39.0417 20.6046 38.5667 20.6046 38V28H16.3954V38C16.3954 38.5667 16.1937 39.0417 15.7903 39.425C15.387 39.8083 14.8871 40 14.2908 40C13.6945 40 13.1947 39.8083 12.7913 39.425C12.3879 39.0417 12.1862 38.5667 12.1862 38Z" fill="white"/>
</svg>
