<svg width="22" height="15" viewBox="0 0 22 15" fill="none" xmlns="http://www.w3.org/2000/svg">
<path d="M16.882 8.84819H1.84831C1.46629 8.84819 1.14607 8.71899 0.88764 8.46059C0.629213 8.20218 0.5 7.88199 0.5 7.5C0.5 7.11801 0.629213 6.79782 0.88764 6.53941C1.14607 6.28101 1.46629 6.15181 1.84831 6.15181H16.882L13.0393 2.30946C12.7697 2.03982 12.6404 1.72524 12.6517 1.36572C12.6629 1.0062 12.7921 0.691623 13.0393 0.421985C13.309 0.152346 13.6292 0.011909 14 0.000674097C14.3708 -0.0105608 14.691 0.118641 14.9607 0.38828L21.1292 6.55626C21.264 6.69108 21.3596 6.83714 21.4157 6.99443C21.4719 7.15172 21.5 7.32024 21.5 7.5C21.5 7.67976 21.4719 7.84828 21.4157 8.00557C21.3596 8.16286 21.264 8.30892 21.1292 8.44374L14.9607 14.6117C14.691 14.8814 14.3708 15.0106 14 14.9993C13.6292 14.9881 13.309 14.8477 13.0393 14.578C12.7921 14.3084 12.6629 13.9938 12.6517 13.6343C12.6404 13.2748 12.7697 12.9602 13.0393 12.6905L16.882 8.84819Z" fill="#00235A"/>
</svg>
