<svg width="16" height="16" viewBox="0 0 16 16" fill="none" xmlns="http://www.w3.org/2000/svg">
<path d="M8 16C6.89333 16 5.85333 15.79 4.88 15.37C3.90667 14.95 3.06 14.38 2.34 13.66C1.62 12.94 1.05 12.0933 0.63 11.12C0.21 10.1467 0 9.10667 0 8C0 6.89333 0.21 5.85333 0.63 4.88C1.05 3.90667 1.62 3.06 2.34 2.34C3.06 1.62 3.90667 1.05 4.88 0.63C5.85333 0.21 6.89333 0 8 0C9.10667 0 10.1467 0.21 11.12 0.63C12.0933 1.05 12.94 1.62 13.66 2.34C14.38 3.06 14.95 3.90667 15.37 4.88C15.79 5.85333 16 6.89333 16 8C16 9.10667 15.79 10.1467 15.37 11.12C14.95 12.0933 14.38 12.94 13.66 13.66C12.94 14.38 12.0933 14.95 11.12 15.37C10.1467 15.79 9.10667 16 8 16ZM8.8 14.34C10.3867 14.14 11.7167 13.4433 12.79 12.25C13.8633 11.0567 14.4 9.64 14.4 8C14.4 6.36 13.8633 4.94333 12.79 3.75C11.7167 2.55667 10.3867 1.86 8.8 1.66V14.34Z" fill="#E8EAED"/>
</svg>
