<svg width="16" height="16" viewBox="0 0 16 16" fill="none" xmlns="http://www.w3.org/2000/svg">
<path d="M7.99996 10.3834C7.91107 10.3834 7.82774 10.3695 7.74996 10.3417C7.67218 10.3139 7.59996 10.2667 7.53329 10.2L5.13329 7.80002C4.99996 7.66669 4.93607 7.51113 4.94163 7.33335C4.94718 7.15558 5.01107 7.00002 5.13329 6.86669C5.26663 6.73335 5.42496 6.66391 5.60829 6.65835C5.79163 6.6528 5.94996 6.71669 6.08329 6.85002L7.33329 8.10002V3.33335C7.33329 3.14446 7.39718 2.98613 7.52496 2.85835C7.65274 2.73058 7.81107 2.66669 7.99996 2.66669C8.18885 2.66669 8.34718 2.73058 8.47496 2.85835C8.60274 2.98613 8.66663 3.14446 8.66663 3.33335V8.10002L9.91663 6.85002C10.05 6.71669 10.2083 6.6528 10.3916 6.65835C10.575 6.66391 10.7333 6.73335 10.8666 6.86669C10.9888 7.00002 11.0527 7.15558 11.0583 7.33335C11.0638 7.51113 11 7.66669 10.8666 7.80002L8.46663 10.2C8.39996 10.2667 8.32774 10.3139 8.24996 10.3417C8.17218 10.3695 8.08885 10.3834 7.99996 10.3834ZM3.99996 13.3334C3.63329 13.3334 3.3194 13.2028 3.05829 12.9417C2.79718 12.6806 2.66663 12.3667 2.66663 12V10.6667C2.66663 10.4778 2.73051 10.3195 2.85829 10.1917C2.98607 10.0639 3.1444 10 3.33329 10C3.52218 10 3.68051 10.0639 3.80829 10.1917C3.93607 10.3195 3.99996 10.4778 3.99996 10.6667V12H12V10.6667C12 10.4778 12.0638 10.3195 12.1916 10.1917C12.3194 10.0639 12.4777 10 12.6666 10C12.8555 10 13.0138 10.0639 13.1416 10.1917C13.2694 10.3195 13.3333 10.4778 13.3333 10.6667V12C13.3333 12.3667 13.2027 12.6806 12.9416 12.9417C12.6805 13.2028 12.3666 13.3334 12 13.3334H3.99996Z" fill="#00235A"/>
</svg>
