<svg width="30" height="30" viewBox="0 0 30 30" fill="none" xmlns="http://www.w3.org/2000/svg">
<path d="M20.7241 0C28.741 0 29.3684 0.627417 29.3684 8.64433V20.7241C29.3684 28.741 28.741 29.3684 20.7241 29.3684H19.1903V18.677H22.9594L23.5521 14.4406H19.1903C19.1903 14.4406 19.1836 11.9603 19.1903 11.3416C19.2029 10.1308 20.2135 9.51804 21.0825 9.52738C21.9516 9.53606 23.751 9.53005 23.751 9.53005V5.62606C23.751 5.62606 22.1925 5.42448 20.5579 5.40713C19.1843 5.39311 17.6671 5.76422 16.443 6.99836C15.1982 8.25319 15.0013 10.1214 14.9779 12.4048C14.9712 13.0649 14.9779 14.4399 14.9779 14.4399H11.2895V18.6763H14.9779V29.3684H8.64433C0.627417 29.3684 0 28.741 0 20.7241V8.64433C0 0.627417 0.627417 0 8.64433 0H20.7241Z" fill="white"/>
</svg>
