<svg width="28" height="26" viewBox="0 0 28 26" fill="none" xmlns="http://www.w3.org/2000/svg">
<path d="M14 26C13.6033 26 13.2708 25.8616 13.0025 25.5847C12.7342 25.3079 12.6 24.9648 12.6 24.5556C12.6 24.1463 12.7342 23.8032 13.0025 23.5264C13.2708 23.2495 13.6033 23.1111 14 23.1111H23.8V12.8556C23.8 10.0389 22.8492 7.64954 20.9475 5.6875C19.0458 3.72546 16.73 2.74444 14 2.74444C11.27 2.74444 8.95417 3.72546 7.0525 5.6875C5.15083 7.64954 4.2 10.0389 4.2 12.8556V20.2222C4.2 20.6315 4.06583 20.9745 3.7975 21.2514C3.52917 21.5282 3.19667 21.6667 2.8 21.6667C2.03 21.6667 1.37083 21.3838 0.8225 20.8181C0.274167 20.2523 0 19.5722 0 18.7778V15.8889C0 15.3833 0.1225 14.9079 0.3675 14.4625C0.6125 14.0171 0.956667 13.662 1.4 13.3972L1.505 11.4833C1.69167 9.8463 2.1525 8.32963 2.8875 6.93333C3.6225 5.53704 4.54417 4.3213 5.6525 3.28611C6.76083 2.25093 8.0325 1.44444 9.4675 0.866667C10.9025 0.288889 12.4133 0 14 0C15.5867 0 17.0917 0.288889 18.515 0.866667C19.9383 1.44444 21.21 2.24491 22.33 3.26806C23.45 4.2912 24.3717 5.50093 25.095 6.89722C25.8183 8.29352 26.285 9.81019 26.495 11.4472L26.6 13.325C27.0433 13.5417 27.3875 13.8667 27.6325 14.3C27.8775 14.7333 28 15.1907 28 15.6722V18.9944C28 19.4759 27.8775 19.9333 27.6325 20.3667C27.3875 20.8 27.0433 21.125 26.6 21.3417V23.1111C26.6 23.9056 26.3258 24.5856 25.7775 25.1514C25.2292 25.7171 24.57 26 23.8 26H14ZM9.8 15.8889C9.40333 15.8889 9.07083 15.7505 8.8025 15.4736C8.53417 15.1968 8.4 14.8537 8.4 14.4444C8.4 14.0352 8.53417 13.6921 8.8025 13.4153C9.07083 13.1384 9.40333 13 9.8 13C10.1967 13 10.5292 13.1384 10.7975 13.4153C11.0658 13.6921 11.2 14.0352 11.2 14.4444C11.2 14.8537 11.0658 15.1968 10.7975 15.4736C10.5292 15.7505 10.1967 15.8889 9.8 15.8889ZM18.2 15.8889C17.8033 15.8889 17.4708 15.7505 17.2025 15.4736C16.9342 15.1968 16.8 14.8537 16.8 14.4444C16.8 14.0352 16.9342 13.6921 17.2025 13.4153C17.4708 13.1384 17.8033 13 18.2 13C18.5967 13 18.9292 13.1384 19.1975 13.4153C19.4658 13.6921 19.6 14.0352 19.6 14.4444C19.6 14.8537 19.4658 15.1968 19.1975 15.4736C18.9292 15.7505 18.5967 15.8889 18.2 15.8889ZM5.635 13.65C5.47167 11.0981 6.21833 8.90741 7.875 7.07778C9.53167 5.24815 11.5967 4.33333 14.07 4.33333C16.1467 4.33333 17.9725 5.01343 19.5475 6.37361C21.1225 7.7338 22.0733 9.47315 22.4 11.5917C20.2767 11.5676 18.3225 10.9778 16.5375 9.82222C14.7525 8.66667 13.3817 7.10185 12.425 5.12778C12.0517 7.0537 11.2642 8.76898 10.0625 10.2736C8.86083 11.7782 7.385 12.9037 5.635 13.65Z" fill="#E8EAED"/>
</svg>
