<svg width="30" height="30" viewBox="0 0 30 30" fill="none" xmlns="http://www.w3.org/2000/svg">
<path d="M8.5246 0C3.82989 0 0 3.8299 0 8.52461V20.8438C0 25.5385 3.8299 29.3684 8.52461 29.3684H20.8438C25.5385 29.3684 29.3684 25.5385 29.3684 20.8438V8.52462C29.3684 3.82991 25.5385 2.25911e-05 20.8438 2.25911e-05L8.5246 0ZM8.5246 2.25911H20.8438C24.3163 2.25911 27.1093 5.0477 27.1093 8.52461V20.8438C27.1093 24.3163 24.3207 27.1093 20.8438 27.1093H8.52461C5.05211 27.1093 2.25912 24.3207 2.25912 20.8438V8.52462C2.25912 5.05212 5.04768 2.25911 8.5246 2.25911ZM23.1559 4.51822C22.2204 4.51822 21.4615 5.27714 21.4615 6.21255C21.4615 7.14797 22.2204 7.90688 23.1559 7.90688C24.0913 7.90688 24.8502 7.14797 24.8502 6.21255C24.8502 5.27714 24.0913 4.51822 23.1559 4.51822ZM14.6842 6.77733C10.3292 6.77733 6.77731 10.3292 6.77731 14.6842C6.77731 19.0392 10.3292 22.5911 14.6842 22.5911C19.0392 22.5911 22.5911 19.0392 22.5911 14.6842C22.5911 10.3292 19.0392 6.77733 14.6842 6.77733ZM14.6842 9.03643C17.8169 9.03643 20.332 11.5515 20.332 14.6842C20.332 17.817 17.8169 20.332 14.6842 20.332C11.5514 20.332 9.03642 17.817 9.03642 14.6842C9.03642 11.5515 11.5514 9.03643 14.6842 9.03643Z" fill="white"/>
</svg>
