<svg width="16" height="16" viewBox="0 0 16 16" fill="none" xmlns="http://www.w3.org/2000/svg">
<path d="M7.29997 8.46668L6.3333 7.51668C6.21108 7.39446 6.0583 7.33335 5.87497 7.33335C5.69163 7.33335 5.5333 7.40002 5.39997 7.53335C5.27775 7.65557 5.21663 7.81113 5.21663 8.00002C5.21663 8.18891 5.27775 8.34446 5.39997 8.46668L6.8333 9.90002C6.96663 10.0334 7.12219 10.1 7.29997 10.1C7.47775 10.1 7.6333 10.0334 7.76663 9.90002L10.6 7.06668C10.7333 6.93335 10.7972 6.7778 10.7916 6.60002C10.7861 6.42224 10.7222 6.26668 10.6 6.13335C10.4666 6.00002 10.3083 5.93057 10.125 5.92502C9.94163 5.91946 9.7833 5.98335 9.64997 6.11668L7.29997 8.46668ZM5.4333 14.5L4.46663 12.8667L2.6333 12.4667C2.46663 12.4334 2.3333 12.3472 2.2333 12.2084C2.1333 12.0695 2.09441 11.9167 2.11663 11.75L2.29997 9.86668L1.04997 8.43335C0.938856 8.31113 0.883301 8.16668 0.883301 8.00002C0.883301 7.83335 0.938856 7.68891 1.04997 7.56668L2.29997 6.13335L2.11663 4.25002C2.09441 4.08335 2.1333 3.93057 2.2333 3.79168C2.3333 3.6528 2.46663 3.56668 2.6333 3.53335L4.46663 3.13335L5.4333 1.50002C5.52219 1.35557 5.64441 1.25835 5.79997 1.20835C5.95552 1.15835 6.11108 1.16668 6.26663 1.23335L7.99997 1.96668L9.7333 1.23335C9.88886 1.16668 10.0444 1.15835 10.2 1.20835C10.3555 1.25835 10.4777 1.35557 10.5666 1.50002L11.5333 3.13335L13.3666 3.53335C13.5333 3.56668 13.6666 3.6528 13.7666 3.79168C13.8666 3.93057 13.9055 4.08335 13.8833 4.25002L13.7 6.13335L14.95 7.56668C15.0611 7.68891 15.1166 7.83335 15.1166 8.00002C15.1166 8.16668 15.0611 8.31113 14.95 8.43335L13.7 9.86668L13.8833 11.75C13.9055 11.9167 13.8666 12.0695 13.7666 12.2084C13.6666 12.3472 13.5333 12.4334 13.3666 12.4667L11.5333 12.8667L10.5666 14.5C10.4777 14.6445 10.3555 14.7417 10.2 14.7917C10.0444 14.8417 9.88886 14.8334 9.7333 14.7667L7.99997 14.0334L6.26663 14.7667C6.11108 14.8334 5.95552 14.8417 5.79997 14.7917C5.64441 14.7417 5.52219 14.6445 5.4333 14.5ZM6.29997 13.3L7.99997 12.5667L9.7333 13.3L10.6666 11.7L12.5 11.2667L12.3333 9.40002L13.5666 8.00002L12.3333 6.56668L12.5 4.70002L10.6666 4.30002L9.69997 2.70002L7.99997 3.43335L6.26663 2.70002L5.3333 4.30002L3.49997 4.70002L3.66663 6.56668L2.4333 8.00002L3.66663 9.40002L3.49997 11.3L5.3333 11.7L6.29997 13.3Z" fill="#00235A"/>
</svg>
