<svg width="10" height="12" viewBox="0 0 10 12" fill="none" xmlns="http://www.w3.org/2000/svg">
<path d="M5 6C5.34375 6 5.63802 5.8825 5.88281 5.6475C6.1276 5.4125 6.25 5.13 6.25 4.8C6.25 4.47 6.1276 4.1875 5.88281 3.9525C5.63802 3.7175 5.34375 3.6 5 3.6C4.65625 3.6 4.36198 3.7175 4.11719 3.9525C3.8724 4.1875 3.75 4.47 3.75 4.8C3.75 5.13 3.8724 5.4125 4.11719 5.6475C4.36198 5.8825 4.65625 6 5 6ZM5 10.41C6.27083 9.29 7.21354 8.2725 7.82812 7.3575C8.44271 6.4425 8.75 5.63 8.75 4.92C8.75 3.83 8.38802 2.9375 7.66406 2.2425C6.9401 1.5475 6.05208 1.2 5 1.2C3.94792 1.2 3.0599 1.5475 2.33594 2.2425C1.61198 2.9375 1.25 3.83 1.25 4.92C1.25 5.63 1.55729 6.4425 2.17188 7.3575C2.78646 8.2725 3.72917 9.29 5 10.41ZM5 12C3.32292 10.63 2.07031 9.3575 1.24219 8.1825C0.414062 7.0075 0 5.92 0 4.92C0 3.42 0.502604 2.225 1.50781 1.335C2.51302 0.445 3.67708 0 5 0C6.32292 0 7.48698 0.445 8.49219 1.335C9.4974 2.225 10 3.42 10 4.92C10 5.92 9.58594 7.0075 8.75781 8.1825C7.92969 9.3575 6.67708 10.63 5 12Z" fill="#EDEDED"/>
</svg>
