<svg width="36" height="26" viewBox="0 0 36 26" fill="none" xmlns="http://www.w3.org/2000/svg">
<path d="M21.2727 14.625C19.9091 14.625 18.75 14.151 17.7955 13.2031C16.8409 12.2552 16.3636 11.1042 16.3636 9.75C16.3636 8.39583 16.8409 7.24479 17.7955 6.29688C18.75 5.34896 19.9091 4.875 21.2727 4.875C22.6364 4.875 23.7955 5.34896 24.75 6.29688C25.7045 7.24479 26.1818 8.39583 26.1818 9.75C26.1818 11.1042 25.7045 12.2552 24.75 13.2031C23.7955 14.151 22.6364 14.625 21.2727 14.625ZM9.81818 19.5C8.91818 19.5 8.14773 19.1818 7.50682 18.5453C6.86591 17.9089 6.54545 17.1437 6.54545 16.25V3.25C6.54545 2.35625 6.86591 1.59115 7.50682 0.954687C8.14773 0.318229 8.91818 0 9.81818 0H32.7273C33.6273 0 34.3977 0.318229 35.0386 0.954687C35.6795 1.59115 36 2.35625 36 3.25V16.25C36 17.1437 35.6795 17.9089 35.0386 18.5453C34.3977 19.1818 33.6273 19.5 32.7273 19.5H9.81818ZM13.0909 16.25H29.4545C29.4545 15.3562 29.775 14.5911 30.4159 13.9547C31.0568 13.3182 31.8273 13 32.7273 13V6.5C31.8273 6.5 31.0568 6.18177 30.4159 5.54531C29.775 4.90885 29.4545 4.14375 29.4545 3.25H13.0909C13.0909 4.14375 12.7705 4.90885 12.1295 5.54531C11.4886 6.18177 10.7182 6.5 9.81818 6.5V13C10.7182 13 11.4886 13.3182 12.1295 13.9547C12.7705 14.5911 13.0909 15.3562 13.0909 16.25ZM29.4545 26H3.27273C2.37273 26 1.60227 25.6818 0.961364 25.0453C0.320455 24.4089 0 23.6437 0 22.75V6.5C0 6.03958 0.156818 5.65365 0.470455 5.34219C0.784091 5.03073 1.17273 4.875 1.63636 4.875C2.1 4.875 2.48864 5.03073 2.80227 5.34219C3.11591 5.65365 3.27273 6.03958 3.27273 6.5V22.75H29.4545C29.9182 22.75 30.3068 22.9057 30.6205 23.2172C30.9341 23.5286 31.0909 23.9146 31.0909 24.375C31.0909 24.8354 30.9341 25.2214 30.6205 25.5328C30.3068 25.8443 29.9182 26 29.4545 26Z" fill="#E8EAED"/>
</svg>
