<svg width="21" height="26" viewBox="0 0 21 26" fill="none" xmlns="http://www.w3.org/2000/svg">
<path d="M2.6 26C1.885 26 1.27292 25.7575 0.76375 25.2726C0.254583 24.7877 0 24.2048 0 23.5238V11.1429C0 10.4619 0.254583 9.87897 0.76375 9.39405C1.27292 8.90913 1.885 8.66667 2.6 8.66667H14.3V6.19048C14.3 5.15873 13.9208 4.28175 13.1625 3.55952C12.4042 2.8373 11.4833 2.47619 10.4 2.47619C9.49 2.47619 8.69375 2.73929 8.01125 3.26548C7.32875 3.79167 6.86833 4.44683 6.63 5.23095C6.54333 5.51984 6.36458 5.75198 6.09375 5.92738C5.82292 6.10278 5.525 6.19048 5.2 6.19048C4.83167 6.19048 4.52292 6.07698 4.27375 5.85C4.02458 5.62302 3.9325 5.35476 3.9975 5.04524C4.30083 3.62143 5.04833 2.4246 6.24 1.45476C7.43167 0.484921 8.81833 0 10.4 0C12.1983 0 13.7312 0.603571 14.9987 1.81071C16.2663 3.01786 16.9 4.47778 16.9 6.19048V8.66667H18.2C18.915 8.66667 19.5271 8.90913 20.0362 9.39405C20.5454 9.87897 20.8 10.4619 20.8 11.1429V23.5238C20.8 24.2048 20.5454 24.7877 20.0362 25.2726C19.5271 25.7575 18.915 26 18.2 26H2.6ZM2.6 23.5238H18.2V11.1429H2.6V23.5238ZM10.4 19.8095C11.115 19.8095 11.7271 19.5671 12.2362 19.0821C12.7454 18.5972 13 18.0143 13 17.3333C13 16.6524 12.7454 16.0694 12.2362 15.5845C11.7271 15.0996 11.115 14.8571 10.4 14.8571C9.685 14.8571 9.07292 15.0996 8.56375 15.5845C8.05458 16.0694 7.8 16.6524 7.8 17.3333C7.8 18.0143 8.05458 18.5972 8.56375 19.0821C9.07292 19.5671 9.685 19.8095 10.4 19.8095Z" fill="#E8EAED"/>
</svg>
