<svg width="33" height="26" viewBox="0 0 33 26" fill="none" xmlns="http://www.w3.org/2000/svg">
<path d="M13.8089 18.6875C14.4489 19.3375 15.2755 19.6557 16.2887 19.6422C17.302 19.6286 18.0486 19.2563 18.5285 18.525L25.288 8.24687C25.5279 7.86771 25.4946 7.5224 25.188 7.21094C24.8813 6.89948 24.5414 6.86562 24.1681 7.10937L14.0489 13.975C13.329 14.4625 12.949 15.2073 12.909 16.2094C12.869 17.2115 13.169 18.0375 13.8089 18.6875ZM16.2887 0C17.2486 0 18.1952 0.08125 19.1285 0.24375C20.0617 0.40625 20.9683 0.663542 21.8482 1.01562C22.2749 1.17813 22.7282 1.48281 23.2081 1.92969C23.6881 2.37656 23.8214 2.80312 23.6081 3.20937C23.3948 3.61562 22.9148 3.88646 22.1682 4.02187C21.4216 4.15729 20.8217 4.14375 20.3684 3.98125C19.7018 3.7375 19.0285 3.55469 18.3485 3.43281C17.6686 3.31094 16.982 3.25 16.2887 3.25C12.7423 3.25 9.72259 4.51615 7.22946 7.04844C4.73634 9.58073 3.48977 12.6479 3.48977 16.25C3.48977 17.3875 3.64309 18.5115 3.94973 19.6219C4.25638 20.7323 4.68967 21.775 5.24963 22.75H27.3278C27.9411 21.7208 28.3877 20.651 28.6677 19.5406C28.9477 18.4302 29.0876 17.2792 29.0876 16.0875C29.0876 15.3833 29.0276 14.6927 28.9077 14.0156C28.7877 13.3385 28.6077 12.675 28.3677 12.025C28.2077 11.5646 28.181 11.1177 28.2877 10.6844C28.3944 10.251 28.6343 9.88542 29.0076 9.5875C29.3543 9.31667 29.7343 9.23542 30.1476 9.34375C30.5609 9.45208 30.8475 9.69583 31.0075 10.075C31.4074 11.0229 31.7141 11.9911 31.9274 12.9797C32.1407 13.9682 32.2607 14.9771 32.2874 16.0062C32.314 17.55 32.1407 19.026 31.7674 20.4344C31.3941 21.8427 30.8475 23.1833 30.1276 24.4562C29.8342 24.9437 29.4343 25.3229 28.9277 25.5938C28.421 25.8646 27.8877 26 27.3278 26H5.24963C4.68967 26 4.15638 25.8646 3.64976 25.5938C3.14313 25.3229 2.74317 24.9437 2.44986 24.4562C1.75658 23.2375 1.22329 21.9443 0.849992 20.5766C0.47669 19.2089 0.290039 17.7667 0.290039 16.25C0.290039 14.0021 0.710004 11.8964 1.54993 9.93281C2.38986 7.96927 3.53644 6.24948 4.98965 4.77344C6.44286 3.2974 8.14272 2.13281 10.0892 1.27969C12.0357 0.426562 14.1022 0 16.2887 0Z" fill="url(#paint0_linear_1103_139)"/>
<defs>
<linearGradient id="paint0_linear_1103_139" x1="16.29" y1="0" x2="16.29" y2="26" gradientUnits="userSpaceOnUse">
<stop stop-color="#FBDC00"/>
<stop offset="1" stop-color="#FDCF00"/>
</linearGradient>
</defs>
</svg>
