<svg width="36" height="20" viewBox="0 0 36 20" fill="none" xmlns="http://www.w3.org/2000/svg">
<path d="M4.9143 20C4.40804 20 3.98367 19.8403 3.6412 19.5208C3.29873 19.2014 3.12749 18.8056 3.12749 18.3333C3.12749 17.8611 3.29873 17.4653 3.6412 17.1458C3.98367 16.8264 4.40804 16.6667 4.9143 16.6667H14.7417L0.80464 3.66667C0.477058 3.36111 0.305823 2.97917 0.290932 2.52083C0.276042 2.0625 0.447278 1.66667 0.80464 1.33333C1.13222 1.02778 1.54914 0.875 2.05541 0.875C2.56167 0.875 2.97859 1.02778 3.30617 1.33333L17.422 14.4583L26.7134 5.79167C26.5942 5.54167 26.5049 5.28472 26.4453 5.02083C26.3858 4.75694 26.356 4.47222 26.356 4.16667C26.356 3 26.7878 2.01389 27.6514 1.20833C28.5151 0.402778 29.5723 0 30.823 0C32.0738 0 33.131 0.402778 33.9946 1.20833C34.8582 2.01389 35.29 3 35.29 4.16667C35.29 5.33333 34.8582 6.31944 33.9946 7.125C33.131 7.93056 32.0738 8.33333 30.823 8.33333C30.555 8.33333 30.2944 8.3125 30.0413 8.27083C29.7882 8.22917 29.5425 8.16667 29.3042 8.08333L20.1022 16.6667H29.9296C30.4359 16.6667 30.8602 16.8264 31.2027 17.1458C31.5452 17.4653 31.7164 17.8611 31.7164 18.3333C31.7164 18.8056 31.5452 19.2014 31.2027 19.5208C30.8602 19.8403 30.4359 20 29.9296 20H4.9143Z" fill="url(#paint0_linear_1102_100)"/>
<defs>
<linearGradient id="paint0_linear_1102_100" x1="17.79" y1="0" x2="17.79" y2="20" gradientUnits="userSpaceOnUse">
<stop stop-color="#FBDC00"/>
<stop offset="1" stop-color="#FDCF00"/>
</linearGradient>
</defs>
</svg>
