<svg width="16" height="16" viewBox="0 0 16 16" fill="none" xmlns="http://www.w3.org/2000/svg">
<path d="M3.33333 14C2.96667 14 2.65278 13.8694 2.39167 13.6083C2.13056 13.3472 2 13.0333 2 12.6666V9.99998C2 9.63331 2.13056 9.31942 2.39167 9.05831C2.65278 8.7972 2.96667 8.66665 3.33333 8.66665H10V6.66665C10 6.47776 10.0639 6.31942 10.1917 6.19165C10.3194 6.06387 10.4778 5.99998 10.6667 5.99998C10.8556 5.99998 11.0139 6.06387 11.1417 6.19165C11.2694 6.31942 11.3333 6.47776 11.3333 6.66665V8.66665H12.6667C13.0333 8.66665 13.3472 8.7972 13.6083 9.05831C13.8694 9.31942 14 9.63331 14 9.99998V12.6666C14 13.0333 13.8694 13.3472 13.6083 13.6083C13.3472 13.8694 13.0333 14 12.6667 14H3.33333ZM3.33333 12.6666H12.6667V9.99998H3.33333V12.6666ZM4.66667 12C4.85556 12 5.01389 11.9361 5.14167 11.8083C5.26944 11.6805 5.33333 11.5222 5.33333 11.3333C5.33333 11.1444 5.26944 10.9861 5.14167 10.8583C5.01389 10.7305 4.85556 10.6666 4.66667 10.6666C4.47778 10.6666 4.31944 10.7305 4.19167 10.8583C4.06389 10.9861 4 11.1444 4 11.3333C4 11.5222 4.06389 11.6805 4.19167 11.8083C4.31944 11.9361 4.47778 12 4.66667 12ZM7 12C7.18889 12 7.34722 11.9361 7.475 11.8083C7.60278 11.6805 7.66667 11.5222 7.66667 11.3333C7.66667 11.1444 7.60278 10.9861 7.475 10.8583C7.34722 10.7305 7.18889 10.6666 7 10.6666C6.81111 10.6666 6.65278 10.7305 6.525 10.8583C6.39722 10.9861 6.33333 11.1444 6.33333 11.3333C6.33333 11.5222 6.39722 11.6805 6.525 11.8083C6.65278 11.9361 6.81111 12 7 12ZM9.33333 12C9.52222 12 9.68056 11.9361 9.80833 11.8083C9.93611 11.6805 10 11.5222 10 11.3333C10 11.1444 9.93611 10.9861 9.80833 10.8583C9.68056 10.7305 9.52222 10.6666 9.33333 10.6666C9.14444 10.6666 8.98611 10.7305 8.85833 10.8583C8.73056 10.9861 8.66667 11.1444 8.66667 11.3333C8.66667 11.5222 8.73056 11.6805 8.85833 11.8083C8.98611 11.9361 9.14444 12 9.33333 12ZM10.6667 4.99998C10.5444 4.99998 10.4333 5.01109 10.3333 5.03331C10.2333 5.05554 10.1333 5.08887 10.0333 5.13331C9.85556 5.21109 9.675 5.24442 9.49167 5.23331C9.30833 5.2222 9.15 5.14998 9.01667 5.01665C8.88333 4.88331 8.81944 4.7222 8.825 4.53331C8.83056 4.34442 8.91111 4.20554 9.06667 4.11665C9.3 3.9722 9.55278 3.86109 9.825 3.78331C10.0972 3.70554 10.3778 3.66665 10.6667 3.66665C10.9667 3.66665 11.25 3.70554 11.5167 3.78331C11.7833 3.86109 12.0333 3.9722 12.2667 4.11665C12.4222 4.20554 12.5028 4.34442 12.5083 4.53331C12.5139 4.7222 12.45 4.88331 12.3167 5.01665C12.1833 5.14998 12.0222 5.2222 11.8333 5.23331C11.6444 5.24442 11.4611 5.21109 11.2833 5.13331C11.1944 5.08887 11.0972 5.05554 10.9917 5.03331C10.8861 5.01109 10.7778 4.99998 10.6667 4.99998ZM10.6667 2.66665C10.2333 2.66665 9.81944 2.73054 9.425 2.85831C9.03056 2.98609 8.66667 3.1722 8.33333 3.41665C8.17778 3.52776 8.00833 3.57776 7.825 3.56665C7.64167 3.55554 7.48889 3.48887 7.36667 3.36665C7.23333 3.23331 7.16667 3.07776 7.16667 2.89998C7.16667 2.7222 7.23889 2.57776 7.38333 2.46665C7.83889 2.11109 8.34444 1.83331 8.9 1.63331C9.45556 1.43331 10.0444 1.33331 10.6667 1.33331C11.2889 1.33331 11.8778 1.43331 12.4333 1.63331C12.9889 1.83331 13.4944 2.11109 13.95 2.46665C14.0944 2.57776 14.1667 2.7222 14.1667 2.89998C14.1667 3.07776 14.1 3.23331 13.9667 3.36665C13.8444 3.48887 13.6917 3.55554 13.5083 3.56665C13.325 3.57776 13.1556 3.52776 13 3.41665C12.6667 3.1722 12.3028 2.98609 11.9083 2.85831C11.5139 2.73054 11.1 2.66665 10.6667 2.66665Z" fill="#00235A"/>
</svg>
