<svg width="23" height="30" viewBox="0 0 23 30" fill="none" xmlns="http://www.w3.org/2000/svg">
<path d="M11.5 26.962C13.824 26.2025 15.7646 24.7025 17.3219 22.462C18.8792 20.2215 19.7896 17.7215 20.0531 14.962H11.5V3L2.875 6.41772V14.2785C2.875 14.4557 2.89896 14.6835 2.94688 14.962H11.5V26.962ZM11.5 30C11.3323 30 11.1766 29.9873 11.0328 29.962C10.8891 29.9367 10.7453 29.8987 10.6016 29.8481C7.36719 28.7089 4.79167 26.6013 2.875 23.5253C0.958333 20.4494 0 17.1392 0 13.5949V6.41772C0 5.78481 0.173698 5.21519 0.521094 4.70886C0.86849 4.20253 1.31771 3.83544 1.86875 3.6076L10.4938 0.189873C10.8292 0.0632911 11.1646 0 11.5 0C11.8354 0 12.1708 0.0632911 12.5063 0.189873L21.1313 3.6076C21.6823 3.83544 22.1315 4.20253 22.4789 4.70886C22.8263 5.21519 23 5.78481 23 6.41772V13.5949C23 17.1392 22.0417 20.4494 20.125 23.5253C18.2083 26.6013 15.6328 28.7089 12.3984 29.8481C12.2547 29.8987 12.1109 29.9367 11.9672 29.962C11.8234 29.9873 11.6677 30 11.5 30Z" fill="url(#paint0_linear_1102_102)"/>
<defs>
<linearGradient id="paint0_linear_1102_102" x1="11.5" y1="0" x2="11.5" y2="30" gradientUnits="userSpaceOnUse">
<stop stop-color="#FBDC00"/>
<stop offset="1" stop-color="#FDCF00"/>
</linearGradient>
</defs>
</svg>
