<svg width="32" height="26" viewBox="0 0 32 26" fill="none" xmlns="http://www.w3.org/2000/svg">
<path d="M13.5189 18.6875C14.1588 19.3375 14.9854 19.6557 15.9987 19.6422C17.0119 19.6286 17.7585 19.2562 18.2385 18.525L24.9979 8.24687C25.2379 7.86771 25.2046 7.5224 24.8979 7.21094C24.5913 6.89948 24.2513 6.86562 23.878 7.10937L13.7589 13.975C13.0389 14.4625 12.6589 15.2073 12.6189 16.2094C12.579 17.2115 12.8789 18.0375 13.5189 18.6875ZM15.9987 0C16.9586 0 17.9052 0.08125 18.8384 0.24375C19.7717 0.40625 20.6783 0.663542 21.5582 1.01562C21.9848 1.17812 22.4381 1.48281 22.9181 1.92969C23.3981 2.37656 23.5314 2.80312 23.3181 3.20937C23.1047 3.61562 22.6248 3.88646 21.8782 4.02187C21.1316 4.15729 20.5316 4.14375 20.0783 3.98125C19.4117 3.7375 18.7384 3.55469 18.0585 3.43281C17.3786 3.31094 16.6919 3.25 15.9987 3.25C12.4523 3.25 9.43255 4.51615 6.93942 7.04844C4.4463 9.58073 3.19973 12.6479 3.19973 16.25C3.19973 17.3875 3.35305 18.5115 3.6597 19.6219C3.96634 20.7323 4.39963 21.775 4.95959 22.75H27.0377C27.651 21.7208 28.0977 20.651 28.3776 19.5406C28.6576 18.4302 28.7976 17.2792 28.7976 16.0875C28.7976 15.3833 28.7376 14.6927 28.6176 14.0156C28.4976 13.3385 28.3176 12.675 28.0777 12.025C27.9177 11.5646 27.891 11.1177 27.9977 10.6844C28.1043 10.251 28.3443 9.88542 28.7176 9.5875C29.0642 9.31667 29.4442 9.23542 29.8575 9.34375C30.2708 9.45208 30.5575 9.69583 30.7174 10.075C31.1174 11.0229 31.424 11.9911 31.6374 12.9797C31.8507 13.9682 31.9707 14.9771 31.9973 16.0062C32.024 17.55 31.8507 19.026 31.4774 20.4344C31.1041 21.8427 30.5575 23.1833 29.8375 24.4562C29.5442 24.9437 29.1442 25.3229 28.6376 25.5938C28.131 25.8646 27.5977 26 27.0377 26H4.95959C4.39963 26 3.86634 25.8646 3.35972 25.5938C2.8531 25.3229 2.45313 24.9437 2.15982 24.4562C1.46654 23.2375 0.933256 21.9443 0.559953 20.5766C0.186651 19.2089 0 17.7667 0 16.25C0 14.0021 0.419965 11.8964 1.2599 9.93281C2.09983 7.96927 3.2464 6.24948 4.69961 4.77344C6.15282 3.2974 7.85268 2.13281 9.79918 1.27969C11.7457 0.426562 13.8122 0 15.9987 0Z" fill="#E8EAED"/>
</svg>
