<svg width="31" height="26" viewBox="0 0 31 26" fill="none" xmlns="http://www.w3.org/2000/svg">
<path d="M15.29 26C14.865 26 14.5088 25.8616 14.2213 25.5847C13.9338 25.3079 13.79 24.9648 13.79 24.5556C13.79 24.1463 13.9338 23.8032 14.2213 23.5264C14.5088 23.2495 14.865 23.1111 15.29 23.1111H25.79V12.8556C25.79 10.0389 24.7713 7.64954 22.7338 5.6875C20.6963 3.72546 18.215 2.74444 15.29 2.74444C12.365 2.74444 9.88379 3.72546 7.84629 5.6875C5.80879 7.64954 4.79004 10.0389 4.79004 12.8556V20.2222C4.79004 20.6315 4.64629 20.9745 4.35879 21.2514C4.07129 21.5282 3.71504 21.6667 3.29004 21.6667C2.46504 21.6667 1.75879 21.3838 1.17129 20.8181C0.583789 20.2523 0.290039 19.5722 0.290039 18.7778V15.8889C0.290039 15.3833 0.421289 14.9079 0.683789 14.4625C0.946289 14.0171 1.31504 13.662 1.79004 13.3972L1.90254 11.4833C2.10254 9.8463 2.59629 8.32963 3.38379 6.93333C4.17129 5.53704 5.15879 4.3213 6.34629 3.28611C7.53379 2.25093 8.89629 1.44444 10.4338 0.866667C11.9713 0.288889 13.59 0 15.29 0C16.99 0 18.6025 0.288889 20.1275 0.866667C21.6525 1.44444 23.015 2.24491 24.215 3.26806C25.415 4.2912 26.4025 5.50093 27.1775 6.89722C27.9525 8.29352 28.4525 9.81019 28.6775 11.4472L28.79 13.325C29.265 13.5417 29.6338 13.8667 29.8963 14.3C30.1588 14.7333 30.29 15.1907 30.29 15.6722V18.9944C30.29 19.4759 30.1588 19.9333 29.8963 20.3667C29.6338 20.8 29.265 21.125 28.79 21.3417V23.1111C28.79 23.9056 28.4963 24.5856 27.9088 25.1514C27.3213 25.7171 26.615 26 25.79 26H15.29ZM10.79 15.8889C10.365 15.8889 10.0088 15.7505 9.72129 15.4736C9.43379 15.1968 9.29004 14.8537 9.29004 14.4444C9.29004 14.0352 9.43379 13.6921 9.72129 13.4153C10.0088 13.1384 10.365 13 10.79 13C11.215 13 11.5713 13.1384 11.8588 13.4153C12.1463 13.6921 12.29 14.0352 12.29 14.4444C12.29 14.8537 12.1463 15.1968 11.8588 15.4736C11.5713 15.7505 11.215 15.8889 10.79 15.8889ZM19.79 15.8889C19.365 15.8889 19.0088 15.7505 18.7213 15.4736C18.4338 15.1968 18.29 14.8537 18.29 14.4444C18.29 14.0352 18.4338 13.6921 18.7213 13.4153C19.0088 13.1384 19.365 13 19.79 13C20.215 13 20.5713 13.1384 20.8588 13.4153C21.1463 13.6921 21.29 14.0352 21.29 14.4444C21.29 14.8537 21.1463 15.1968 20.8588 15.4736C20.5713 15.7505 20.215 15.8889 19.79 15.8889ZM6.32754 13.65C6.15254 11.0981 6.95254 8.90741 8.72754 7.07778C10.5025 5.24815 12.715 4.33333 15.365 4.33333C17.59 4.33333 19.5463 5.01343 21.2338 6.37361C22.9213 7.7338 23.94 9.47315 24.29 11.5917C22.015 11.5676 19.9213 10.9778 18.0088 9.82222C16.0963 8.66667 14.6275 7.10185 13.6025 5.12778C13.2025 7.0537 12.3588 8.76898 11.0713 10.2736C9.78379 11.7782 8.20254 12.9037 6.32754 13.65Z" fill="url(#paint0_linear_1101_84)"/>
<defs>
<linearGradient id="paint0_linear_1101_84" x1="15.29" y1="0" x2="15.29" y2="26" gradientUnits="userSpaceOnUse">
<stop stop-color="#FBDC00"/>
<stop offset="1" stop-color="#FDCF00"/>
</linearGradient>
</defs>
</svg>
