<svg width="21" height="26" viewBox="0 0 21 26" fill="none" xmlns="http://www.w3.org/2000/svg">
<path d="M6.5625 20.8H14.4375C14.8094 20.8 15.1211 20.6754 15.3727 20.4262C15.6242 20.1771 15.75 19.8683 15.75 19.5C15.75 19.1317 15.6242 18.8229 15.3727 18.5737C15.1211 18.3246 14.8094 18.2 14.4375 18.2H6.5625C6.19062 18.2 5.87891 18.3246 5.62734 18.5737C5.37578 18.8229 5.25 19.1317 5.25 19.5C5.25 19.8683 5.37578 20.1771 5.62734 20.4262C5.87891 20.6754 6.19062 20.8 6.5625 20.8ZM6.5625 15.6H14.4375C14.8094 15.6 15.1211 15.4754 15.3727 15.2262C15.6242 14.9771 15.75 14.6683 15.75 14.3C15.75 13.9317 15.6242 13.6229 15.3727 13.3737C15.1211 13.1246 14.8094 13 14.4375 13H6.5625C6.19062 13 5.87891 13.1246 5.62734 13.3737C5.37578 13.6229 5.25 13.9317 5.25 14.3C5.25 14.6683 5.37578 14.9771 5.62734 15.2262C5.87891 15.4754 6.19062 15.6 6.5625 15.6ZM2.625 26C1.90312 26 1.28516 25.7454 0.771094 25.2362C0.257031 24.7271 0 24.115 0 23.4V2.6C0 1.885 0.257031 1.27292 0.771094 0.76375C1.28516 0.254583 1.90312 0 2.625 0H12.0422C12.3922 0 12.7258 0.065 13.043 0.195C13.3602 0.325 13.6391 0.509167 13.8797 0.7475L20.2453 7.0525C20.4859 7.29083 20.6719 7.56708 20.8031 7.88125C20.9344 8.19542 21 8.52583 21 8.8725V23.4C21 24.115 20.743 24.7271 20.2289 25.2362C19.7148 25.7454 19.0969 26 18.375 26H2.625ZM11.8125 7.8V2.6H2.625V23.4H18.375V9.1H13.125C12.7531 9.1 12.4414 8.97542 12.1898 8.72625C11.9383 8.47708 11.8125 8.16833 11.8125 7.8Z" fill="white"/>
</svg>
