<svg width="16" height="16" viewBox="0 0 16 16" fill="none" xmlns="http://www.w3.org/2000/svg">
<path d="M3.99996 13.3333C3.63329 13.3333 3.3194 13.2027 3.05829 12.9416C2.79718 12.6805 2.66663 12.3666 2.66663 12V10.6666C2.66663 10.4777 2.73051 10.3194 2.85829 10.1916C2.98607 10.0638 3.1444 9.99995 3.33329 9.99995C3.52218 9.99995 3.68051 10.0638 3.80829 10.1916C3.93607 10.3194 3.99996 10.4777 3.99996 10.6666V12H12V10.6666C12 10.4777 12.0638 10.3194 12.1916 10.1916C12.3194 10.0638 12.4777 9.99995 12.6666 9.99995C12.8555 9.99995 13.0138 10.0638 13.1416 10.1916C13.2694 10.3194 13.3333 10.4777 13.3333 10.6666V12C13.3333 12.3666 13.2027 12.6805 12.9416 12.9416C12.6805 13.2027 12.3666 13.3333 12 13.3333H3.99996ZM7.33329 5.23328L6.08329 6.48328C5.94996 6.61662 5.79163 6.68051 5.60829 6.67495C5.42496 6.6694 5.26663 6.59995 5.13329 6.46662C5.01107 6.33328 4.94718 6.17773 4.94163 5.99995C4.93607 5.82217 4.99996 5.66662 5.13329 5.53328L7.53329 3.13328C7.59996 3.06662 7.67218 3.0194 7.74996 2.99162C7.82774 2.96384 7.91107 2.94995 7.99996 2.94995C8.08885 2.94995 8.17218 2.96384 8.24996 2.99162C8.32774 3.0194 8.39996 3.06662 8.46663 3.13328L10.8666 5.53328C11 5.66662 11.0638 5.82217 11.0583 5.99995C11.0527 6.17773 10.9888 6.33328 10.8666 6.46662C10.7333 6.59995 10.575 6.6694 10.3916 6.67495C10.2083 6.68051 10.05 6.61662 9.91663 6.48328L8.66663 5.23328V9.99995C8.66663 10.1888 8.60274 10.3472 8.47496 10.475C8.34718 10.6027 8.18885 10.6666 7.99996 10.6666C7.81107 10.6666 7.65274 10.6027 7.52496 10.475C7.39718 10.3472 7.33329 10.1888 7.33329 9.99995V5.23328Z" fill="#00235A"/>
</svg>
