<svg width="29" height="29" viewBox="0 0 29 29" fill="none" xmlns="http://www.w3.org/2000/svg">
<path d="M14.5184 0C6.53393 0 0.0340557 6.49364 0.0311554 14.4773C0.0297052 17.0293 0.698198 19.5207 1.96562 21.716L0 29L7.58775 27.2073C9.70351 28.3615 12.0853 28.9674 14.5099 28.9688H14.5156C22.4986 28.9688 28.9956 22.4738 29 14.4915C29.0029 10.6215 27.4978 6.98282 24.7629 4.24521C22.0279 1.50906 18.3932 0.00145 14.5184 0ZM14.5156 2.9C17.6131 2.90145 20.524 4.10901 22.7123 6.29561C24.9005 8.48511 26.1026 11.3944 26.0997 14.4887C26.0968 20.8745 20.9021 26.0688 14.5127 26.0688C12.5797 26.0674 10.6649 25.5821 8.97841 24.6613L8.00127 24.1289L6.92216 24.3838L4.06719 25.0578L4.76394 22.4693L5.07833 21.3082L4.47788 20.266C3.46568 18.5144 2.92999 16.5117 2.93144 14.4773C2.93434 8.09444 8.1306 2.9 14.5156 2.9ZM9.39193 7.79375C9.14976 7.79375 8.7582 7.88438 8.42611 8.24687C8.09403 8.60793 7.15724 9.48239 7.15724 11.263C7.15724 13.0436 8.45444 14.7648 8.6357 15.0069C8.81552 15.2476 11.1396 19.0171 14.8186 20.4671C17.8755 21.672 18.4964 21.4342 19.1606 21.3733C19.8247 21.3139 21.3032 20.4996 21.6048 19.6543C21.9065 18.8089 21.9072 18.0818 21.8173 17.9324C21.7274 17.7816 21.4859 17.6917 21.1233 17.5105C20.7623 17.3292 18.9828 16.4555 18.6507 16.3352C18.3187 16.2148 18.0758 16.1539 17.835 16.5164C17.5943 16.8789 16.9025 17.6917 16.6908 17.9324C16.4791 18.1746 16.2688 18.2071 15.9062 18.0259C15.5437 17.8432 14.3781 17.46 12.9946 16.2275C11.9186 15.2691 11.1926 14.0865 10.9809 13.724C10.7706 13.363 10.961 13.1647 11.1423 12.9849C11.3047 12.8225 11.502 12.5622 11.6833 12.3505C11.8631 12.1388 11.9254 11.988 12.0458 11.7473C12.1662 11.5066 12.1046 11.2941 12.0146 11.1129C11.9247 10.9316 11.2206 9.14443 10.8987 8.42813C10.6275 7.82638 10.3411 7.8124 10.083 7.80225C9.87274 7.79355 9.63265 7.79375 9.39193 7.79375Z" fill="white"/>
</svg>
