<svg width="16" height="16" viewBox="0 0 16 16" fill="none" xmlns="http://www.w3.org/2000/svg">
<path d="M7.99998 14C7.53332 14 7.13887 13.8389 6.81665 13.5167C6.49443 13.1945 6.33332 12.8 6.33332 12.3334C6.33332 11.8667 6.49443 11.4722 6.81665 11.15C7.13887 10.8278 7.53332 10.6667 7.99998 10.6667C8.46665 10.6667 8.86109 10.8278 9.18332 11.15C9.50554 11.4722 9.66665 11.8667 9.66665 12.3334C9.66665 12.8 9.50554 13.1945 9.18332 13.5167C8.86109 13.8389 8.46665 14 7.99998 14ZM7.99998 6.66669C8.83332 6.66669 9.62498 6.80002 10.375 7.06669C11.125 7.33335 11.8055 7.70002 12.4166 8.16669C12.6389 8.33335 12.7528 8.5528 12.7583 8.82502C12.7639 9.09724 12.6666 9.33335 12.4666 9.53335C12.2778 9.72224 12.0444 9.81946 11.7666 9.82502C11.4889 9.83058 11.2389 9.75558 11.0166 9.60002C10.5944 9.31113 10.1278 9.08335 9.61665 8.91669C9.10554 8.75002 8.56665 8.66669 7.99998 8.66669C7.43332 8.66669 6.89443 8.75002 6.38332 8.91669C5.8722 9.08335 5.40554 9.31113 4.98332 9.60002C4.76109 9.75558 4.51109 9.8278 4.23332 9.81669C3.95554 9.80558 3.7222 9.70558 3.53332 9.51669C3.34443 9.31669 3.24998 9.08058 3.24998 8.80835C3.24998 8.53613 3.36109 8.31669 3.58332 8.15002C4.19443 7.68335 4.87498 7.31946 5.62498 7.05835C6.37498 6.79724 7.16665 6.66669 7.99998 6.66669ZM7.99998 2.66669C9.38887 2.66669 10.6972 2.89446 11.925 3.35002C13.1528 3.80558 14.2555 4.45002 15.2333 5.28335C15.4555 5.47224 15.5722 5.70558 15.5833 5.98335C15.5944 6.26113 15.5 6.50002 15.3 6.70002C15.1111 6.88891 14.8778 6.98613 14.6 6.99169C14.3222 6.99724 14.0722 6.91113 13.85 6.73335C13.05 6.0778 12.1528 5.56946 11.1583 5.20835C10.1639 4.84724 9.11109 4.66669 7.99998 4.66669C6.88887 4.66669 5.83609 4.84724 4.84165 5.20835C3.8472 5.56946 2.94998 6.0778 2.14998 6.73335C1.92776 6.91113 1.67776 6.99724 1.39998 6.99169C1.1222 6.98613 0.888871 6.88891 0.699982 6.70002C0.499982 6.50002 0.405538 6.26113 0.416649 5.98335C0.42776 5.70558 0.544426 5.47224 0.766649 5.28335C1.74443 4.45002 2.8472 3.80558 4.07498 3.35002C5.30276 2.89446 6.61109 2.66669 7.99998 2.66669Z" fill="white"/>
</svg>
